<svg id="svg" version="1.1" xmlns="http://www.w3.org/2000/svg" style="display: block;" viewBox="0 0 1272 1020">
    <path
        d="M0 0 C419.76 0 839.52 0 1272 0 C1272 336.6 1272 673.2 1272 1020 C852.24 1020 432.48 1020 0 1020 C0 683.4 0 346.8 0 0 Z "
        transform="translate(0,0)" style="fill: none;"/>
    <path
        d="M0 0 C3.43177746 2.0085448 6.2103492 4.4206984 8 8 C8.51158525 12.06344859 8.94019368 16.21399502 6.98828125 19.921875 C4.4550312 22.99524744 1.77277041 25.67767811 -2.234375 26.40625 C-7.15921051 26.58978424 -10.21561955 26.39046788 -14.0625 23.125 C-17.32744391 19.94456052 -18.1955285 17.80581505 -18.375 13.25 C-18.34830946 9.55602888 -18.05754397 7.37536866 -15.6875 4.5 C-10.61188458 -0.22150272 -6.77812463 -1.21001317 0 0 Z "
        transform="translate(974,212)" style="fill: #ff6600;"/>
    <path
        d="M0 0 C3.43177746 2.0085448 6.2103492 4.4206984 8 8 C8.51158525 12.06344859 8.94019368 16.21399502 6.98828125 19.921875 C4.4550312 22.99524744 1.77277041 25.67767811 -2.234375 26.40625 C-7.15921051 26.58978424 -10.21561955 26.39046788 -14.0625 23.125 C-17.32744391 19.94456052 -18.1955285 17.80581505 -18.375 13.25 C-18.34830946 9.55602888 -18.05754397 7.37536866 -15.6875 4.5 C-10.61188458 -0.22150272 -6.77812463 -1.21001317 0 0 Z "
        transform="translate(905,212)" style="fill: #ff6600;"/>
    <path
        d="M0 0 C3.43177746 2.0085448 6.2103492 4.4206984 8 8 C8.51158525 12.06344859 8.94019368 16.21399502 6.98828125 19.921875 C4.4550312 22.99524744 1.77277041 25.67767811 -2.234375 26.40625 C-7.15921051 26.58978424 -10.21561955 26.39046788 -14.0625 23.125 C-17.32744391 19.94456052 -18.1955285 17.80581505 -18.375 13.25 C-18.34830946 9.55602888 -18.05754397 7.37536866 -15.6875 4.5 C-10.61188458 -0.22150272 -6.77812463 -1.21001317 0 0 Z "
        transform="translate(836,212)" style="fill: #ff6600;"/>
    <path
        d="M0 0 C3.43177746 2.0085448 6.2103492 4.4206984 8 8 C8.51158525 12.06344859 8.94019368 16.21399502 6.98828125 19.921875 C4.4550312 22.99524744 1.77277041 25.67767811 -2.234375 26.40625 C-7.15921051 26.58978424 -10.21561955 26.39046788 -14.0625 23.125 C-17.32744391 19.94456052 -18.1955285 17.80581505 -18.375 13.25 C-18.34830946 9.55602888 -18.05754397 7.37536866 -15.6875 4.5 C-10.61188458 -0.22150272 -6.77812463 -1.21001317 0 0 Z "
        transform="translate(974,143)" style="fill: #ff6600;"/>
    <path
        d="M0 0 C3.43177746 2.0085448 6.2103492 4.4206984 8 8 C8.51158525 12.06344859 8.94019368 16.21399502 6.98828125 19.921875 C4.4550312 22.99524744 1.77277041 25.67767811 -2.234375 26.40625 C-7.15921051 26.58978424 -10.21561955 26.39046788 -14.0625 23.125 C-17.32744391 19.94456052 -18.1955285 17.80581505 -18.375 13.25 C-18.34830946 9.55602888 -18.05754397 7.37536866 -15.6875 4.5 C-10.61188458 -0.22150272 -6.77812463 -1.21001317 0 0 Z "
        transform="translate(836,143)" style="fill: #ff6600;"/>
    <path
        d="M0 0 C3.43177746 2.0085448 6.2103492 4.4206984 8 8 C8.51158525 12.06344859 8.94019368 16.21399502 6.98828125 19.921875 C4.4550312 22.99524744 1.77277041 25.67767811 -2.234375 26.40625 C-7.15921051 26.58978424 -10.21561955 26.39046788 -14.0625 23.125 C-17.32744391 19.94456052 -18.1955285 17.80581505 -18.375 13.25 C-18.34830946 9.55602888 -18.05754397 7.37536866 -15.6875 4.5 C-10.61188458 -0.22150272 -6.77812463 -1.21001317 0 0 Z "
        transform="translate(905,143)" style="fill: #ff6600;"/>
    <path
        d="M0 0 C3.43177746 2.0085448 6.2103492 4.4206984 8 8 C8.51158525 12.06344859 8.94019368 16.21399502 6.98828125 19.921875 C4.4550312 22.99524744 1.77277041 25.67767811 -2.234375 26.40625 C-7.15921051 26.58978424 -10.21561955 26.39046788 -14.0625 23.125 C-17.32744391 19.94456052 -18.1955285 17.80581505 -18.375 13.25 C-18.34830946 9.55602888 -18.05754397 7.37536866 -15.6875 4.5 C-10.61188458 -0.22150272 -6.77812463 -1.21001317 0 0 Z "
        transform="translate(974,74)" style="fill: #ff6600;"/>
    <path
        d="M0 0 C3.43177746 2.0085448 6.2103492 4.4206984 8 8 C8.51158525 12.06344859 8.94019368 16.21399502 6.98828125 19.921875 C4.4550312 22.99524744 1.77277041 25.67767811 -2.234375 26.40625 C-7.15921051 26.58978424 -10.21561955 26.39046788 -14.0625 23.125 C-17.32744391 19.94456052 -18.1955285 17.80581505 -18.375 13.25 C-18.34830946 9.55602888 -18.05754397 7.37536866 -15.6875 4.5 C-10.61188458 -0.22150272 -6.77812463 -1.21001317 0 0 Z "
        transform="translate(905,74)" style="fill: #ff6600;"/>
    <path
        d="M0 0 C3.43177746 2.0085448 6.2103492 4.4206984 8 8 C8.51158525 12.06344859 8.94019368 16.21399502 6.98828125 19.921875 C4.4550312 22.99524744 1.77277041 25.67767811 -2.234375 26.40625 C-7.15921051 26.58978424 -10.21561955 26.39046788 -14.0625 23.125 C-17.32744391 19.94456052 -18.1955285 17.80581505 -18.375 13.25 C-18.34830946 9.55602888 -18.05754397 7.37536866 -15.6875 4.5 C-10.61188458 -0.22150272 -6.77812463 -1.21001317 0 0 Z "
        transform="translate(836,74)" style="fill: #ff6600;"/>
    <path
        d="M0 0 C3.43177746 2.0085448 6.2103492 4.4206984 8 8 C8.73387391 13.08138011 8.8026399 17.7469697 5.875 22.125 C2.63515168 25.38034998 -0.51249374 25.62832947 -5 25.875 C-9.48750626 25.62832947 -12.63515168 25.38034998 -15.875 22.125 C-18.33741474 18.3665775 -18.8012327 14.80555963 -18.53125 10.37109375 C-16.50748426 1.33855109 -8.31607246 -1.48456362 0 0 Z "
        transform="translate(905,281)" style="fill: #ff6600;"/>
    <path
        d="M0 0 C3.20411572 1.76393827 4.66919584 3.60976135 6 7 C6.88265516 11.21418065 7.06357409 15.03802811 4.96875 18.90234375 C2.47790012 22.00831205 -0.2334202 24.67880367 -4.234375 25.40625 C-9.15921051 25.58978424 -12.21561955 25.39046788 -16.0625 22.125 C-19.28979449 18.98123549 -20.20989561 16.81630798 -20.4375 12.3125 C-20.33569403 7.63621226 -19.58497561 4.59315731 -16.2421875 1.234375 C-11.17021117 -1.55786284 -5.52085157 -1.12244264 0 0 Z "
        transform="translate(907,6)" style="fill: #ff6600;"/>
    <path
        d="M0 0 C3.39654964 1.3082117 5.23911112 2.80142336 7 6 C8.12244264 11.52085157 8.55786284 17.17021117 5.765625 22.2421875 C2.59074689 25.40194714 -0.57892764 26.41199753 -5 26.75 C-9.78360558 26.47247784 -12.34575026 24.79731622 -15.72265625 21.5078125 C-18.58828899 18.12513899 -18.3863615 14.82243104 -18.35546875 10.546875 C-17.77884373 6.41545178 -16.020496 4.80976372 -13 2 C-8.70030086 -0.8664661 -5.037833 -0.80666208 0 0 Z "
        transform="translate(1043,143)" style="fill: #ff6600;"/>
    <path
        d="M0 0 C3.58903202 1.94559436 5.74088578 4.61132868 8 8 C8.66175067 12.04712777 8.94221821 16.22065714 6.984375 19.91796875 C4.45959086 22.99790121 1.77151797 25.67790582 -2.234375 26.40625 C-6.71796898 26.57334046 -10.31449244 26.41015401 -14.125 23.875 C-17.38034998 20.63515168 -17.62832947 17.48750626 -17.875 13 C-17.62832947 8.51249374 -17.38034998 5.36484832 -14.125 2.125 C-9.69855021 -0.77508779 -5.10315368 -1.14337545 0 0 Z "
        transform="translate(767,143)" style="fill: #ff6600;"/>
    <path
        d="M0 0 C2.5 1.5 2.5 1.5 4 4 C4.791013 8.02098277 4.62153384 10.96411027 2.5 14.5 C-1.03588973 16.62153384 -3.97901723 16.791013 -8 16 C-10.5 14.5 -10.5 14.5 -12 12 C-12.791013 7.97901723 -12.62153384 5.03588973 -10.5 1.5 C-6.96411027 -0.62153384 -4.02098277 -0.791013 0 0 Z "
        transform="translate(308,996)" style="fill: #ff6600;"/>
    <path
        d="M0 0 C2.5 1.5 2.5 1.5 4 4 C4.791013 8.02098277 4.62153384 10.96411027 2.5 14.5 C-1.03588973 16.62153384 -3.97901723 16.791013 -8 16 C-10.5 14.5 -10.5 14.5 -12 12 C-12.791013 7.97901723 -12.62153384 5.03588973 -10.5 1.5 C-6.96411027 -0.62153384 -4.02098277 -0.791013 0 0 Z "
        transform="translate(354,950)" style="fill: #ff6600;"/>
    <path
        d="M0 0 C2.5 1.5 2.5 1.5 4 4 C4.791013 8.02098277 4.62153384 10.96411027 2.5 14.5 C-1.03588973 16.62153384 -3.97901723 16.791013 -8 16 C-10.5 14.5 -10.5 14.5 -12 12 C-12.791013 7.97901723 -12.62153384 5.03588973 -10.5 1.5 C-6.96411027 -0.62153384 -4.02098277 -0.791013 0 0 Z "
        transform="translate(308,950)" style="fill: #ff6600;"/>
    <path
        d="M0 0 C2.5 1.5 2.5 1.5 4 4 C4.791013 8.02098277 4.62153384 10.96411027 2.5 14.5 C-1.03588973 16.62153384 -3.97901723 16.791013 -8 16 C-10.5 14.5 -10.5 14.5 -12 12 C-12.791013 7.97901723 -12.62153384 5.03588973 -10.5 1.5 C-6.96411027 -0.62153384 -4.02098277 -0.791013 0 0 Z "
        transform="translate(262,950)" style="fill: #ff6600;"/>
    <path
        d="M0 0 C2.5 1.5 2.5 1.5 4 4 C4.791013 8.02098277 4.62153384 10.96411027 2.5 14.5 C-1.03588973 16.62153384 -3.97901723 16.791013 -8 16 C-10.5 14.5 -10.5 14.5 -12 12 C-12.791013 7.97901723 -12.62153384 5.03588973 -10.5 1.5 C-6.96411027 -0.62153384 -4.02098277 -0.791013 0 0 Z "
        transform="translate(400,904)" style="fill: #ff6600;"/>
    <path
        d="M0 0 C2.5 1.5 2.5 1.5 4 4 C4.791013 8.02098277 4.62153384 10.96411027 2.5 14.5 C-1.03588973 16.62153384 -3.97901723 16.791013 -8 16 C-10.5 14.5 -10.5 14.5 -12 12 C-12.791013 7.97901723 -12.62153384 5.03588973 -10.5 1.5 C-6.96411027 -0.62153384 -4.02098277 -0.791013 0 0 Z "
        transform="translate(354,904)" style="fill: #ff6600;"/>
    <path
        d="M0 0 C2.5 1.5 2.5 1.5 4 4 C4.791013 8.02098277 4.62153384 10.96411027 2.5 14.5 C-1.03588973 16.62153384 -3.97901723 16.791013 -8 16 C-10.5 14.5 -10.5 14.5 -12 12 C-12.791013 7.97901723 -12.62153384 5.03588973 -10.5 1.5 C-6.96411027 -0.62153384 -4.02098277 -0.791013 0 0 Z "
        transform="translate(308,904)" style="fill: #ff6600;"/>
    <path
        d="M0 0 C2.5 1.5 2.5 1.5 4 4 C4.791013 8.02098277 4.62153384 10.96411027 2.5 14.5 C-1.03588973 16.62153384 -3.97901723 16.791013 -8 16 C-10.5 14.5 -10.5 14.5 -12 12 C-12.791013 7.97901723 -12.62153384 5.03588973 -10.5 1.5 C-6.96411027 -0.62153384 -4.02098277 -0.791013 0 0 Z "
        transform="translate(262,904)" style="fill: #ff6600;"/>
    <path
        d="M0 0 C2.5 1.5 2.5 1.5 4 4 C4.791013 8.02098277 4.62153384 10.96411027 2.5 14.5 C-1.03588973 16.62153384 -3.97901723 16.791013 -8 16 C-10.5 14.5 -10.5 14.5 -12 12 C-12.791013 7.97901723 -12.62153384 5.03588973 -10.5 1.5 C-6.96411027 -0.62153384 -4.02098277 -0.791013 0 0 Z "
        transform="translate(216,904)" style="fill: #ff6600;"/>
    <path
        d="M0 0 C2.5 1.5 2.5 1.5 4 4 C4.791013 8.02098277 4.62153384 10.96411027 2.5 14.5 C-1.03588973 16.62153384 -3.97901723 16.791013 -8 16 C-10.5 14.5 -10.5 14.5 -12 12 C-12.791013 7.97901723 -12.62153384 5.03588973 -10.5 1.5 C-6.96411027 -0.62153384 -4.02098277 -0.791013 0 0 Z "
        transform="translate(354,858)" style="fill: #ff6600;"/>
    <path
        d="M0 0 C2.5 1.5 2.5 1.5 4 4 C4.791013 8.02098277 4.62153384 10.96411027 2.5 14.5 C-1.03588973 16.62153384 -3.97901723 16.791013 -8 16 C-10.5 14.5 -10.5 14.5 -12 12 C-12.791013 7.97901723 -12.62153384 5.03588973 -10.5 1.5 C-6.96411027 -0.62153384 -4.02098277 -0.791013 0 0 Z "
        transform="translate(308,858)" style="fill: #ff6600;"/>
    <path
        d="M0 0 C2.5 1.5 2.5 1.5 4 4 C4.791013 8.02098277 4.62153384 10.96411027 2.5 14.5 C-1.03588973 16.62153384 -3.97901723 16.791013 -8 16 C-10.5 14.5 -10.5 14.5 -12 12 C-12.791013 7.97901723 -12.62153384 5.03588973 -10.5 1.5 C-6.96411027 -0.62153384 -4.02098277 -0.791013 0 0 Z "
        transform="translate(262,858)" style="fill: #ff6600;"/>
    <path
        d="M0 0 C2.5 1.5 2.5 1.5 4 4 C4.791013 8.02098277 4.62153384 10.96411027 2.5 14.5 C-1.03588973 16.62153384 -3.97901723 16.791013 -8 16 C-10.5 14.5 -10.5 14.5 -12 12 C-12.791013 7.97901723 -12.62153384 5.03588973 -10.5 1.5 C-6.96411027 -0.62153384 -4.02098277 -0.791013 0 0 Z "
        transform="translate(308,812)" style="fill: #ff6600;"/>
    <path
        d="M0 0 C2.5 1.5 2.5 1.5 4 4 C4.791013 8.02098277 4.62153384 10.96411027 2.5 14.5 C-1.03588973 16.62153384 -3.97901723 16.791013 -8 16 C-10.5 14.5 -10.5 14.5 -12 12 C-12.791013 7.97901723 -12.62153384 5.03588973 -10.5 1.5 C-6.96411027 -0.62153384 -4.02098277 -0.791013 0 0 Z "
        transform="translate(1018,796)" style="fill: #ff6600;"/>
    <path
        d="M0 0 C2.5 1.5 2.5 1.5 4 4 C4.791013 8.02098277 4.62153384 10.96411027 2.5 14.5 C-1.03588973 16.62153384 -3.97901723 16.791013 -8 16 C-10.5 14.5 -10.5 14.5 -12 12 C-12.791013 7.97901723 -12.62153384 5.03588973 -10.5 1.5 C-6.96411027 -0.62153384 -4.02098277 -0.791013 0 0 Z "
        transform="translate(1064,750)" style="fill: #ff6600;"/>
    <path
        d="M0 0 C2.5 1.5 2.5 1.5 4 4 C4.791013 8.02098277 4.62153384 10.96411027 2.5 14.5 C-1.03588973 16.62153384 -3.97901723 16.791013 -8 16 C-10.5 14.5 -10.5 14.5 -12 12 C-12.791013 7.97901723 -12.62153384 5.03588973 -10.5 1.5 C-6.96411027 -0.62153384 -4.02098277 -0.791013 0 0 Z "
        transform="translate(1018,750)" style="fill: #ff6600;"/>
    <path
        d="M0 0 C2.5 1.5 2.5 1.5 4 4 C4.791013 8.02098277 4.62153384 10.96411027 2.5 14.5 C-1.03588973 16.62153384 -3.97901723 16.791013 -8 16 C-10.5 14.5 -10.5 14.5 -12 12 C-12.791013 7.97901723 -12.62153384 5.03588973 -10.5 1.5 C-6.96411027 -0.62153384 -4.02098277 -0.791013 0 0 Z "
        transform="translate(972,750)" style="fill: #ff6600;"/>
    <path
        d="M0 0 C2.5 1.5 2.5 1.5 4 4 C4.791013 8.02098277 4.62153384 10.96411027 2.5 14.5 C-1.03588973 16.62153384 -3.97901723 16.791013 -8 16 C-10.5 14.5 -10.5 14.5 -12 12 C-12.791013 7.97901723 -12.62153384 5.03588973 -10.5 1.5 C-6.96411027 -0.62153384 -4.02098277 -0.791013 0 0 Z "
        transform="translate(1110,704)" style="fill: #ff6600;"/>
    <path
        d="M0 0 C2.5 1.5 2.5 1.5 4 4 C4.791013 8.02098277 4.62153384 10.96411027 2.5 14.5 C-1.03588973 16.62153384 -3.97901723 16.791013 -8 16 C-10.5 14.5 -10.5 14.5 -12 12 C-12.791013 7.97901723 -12.62153384 5.03588973 -10.5 1.5 C-6.96411027 -0.62153384 -4.02098277 -0.791013 0 0 Z "
        transform="translate(1064,704)" style="fill: #ff6600;"/>
    <path
        d="M0 0 C2.5 1.5 2.5 1.5 4 4 C4.791013 8.02098277 4.62153384 10.96411027 2.5 14.5 C-1.03588973 16.62153384 -3.97901723 16.791013 -8 16 C-10.5 14.5 -10.5 14.5 -12 12 C-12.791013 7.97901723 -12.62153384 5.03588973 -10.5 1.5 C-6.96411027 -0.62153384 -4.02098277 -0.791013 0 0 Z "
        transform="translate(1018,704)" style="fill: #ff6600;"/>
    <path
        d="M0 0 C2.5 1.5 2.5 1.5 4 4 C4.791013 8.02098277 4.62153384 10.96411027 2.5 14.5 C-1.03588973 16.62153384 -3.97901723 16.791013 -8 16 C-10.5 14.5 -10.5 14.5 -12 12 C-12.791013 7.97901723 -12.62153384 5.03588973 -10.5 1.5 C-6.96411027 -0.62153384 -4.02098277 -0.791013 0 0 Z "
        transform="translate(972,704)" style="fill: #ff6600;"/>
    <path
        d="M0 0 C2.5 1.5 2.5 1.5 4 4 C4.791013 8.02098277 4.62153384 10.96411027 2.5 14.5 C-1.03588973 16.62153384 -3.97901723 16.791013 -8 16 C-10.5 14.5 -10.5 14.5 -12 12 C-12.791013 7.97901723 -12.62153384 5.03588973 -10.5 1.5 C-6.96411027 -0.62153384 -4.02098277 -0.791013 0 0 Z "
        transform="translate(926,704)" style="fill: #ff6600;"/>
    <path
        d="M0 0 C2.5 1.5 2.5 1.5 4 4 C4.791013 8.02098277 4.62153384 10.96411027 2.5 14.5 C-1.03588973 16.62153384 -3.97901723 16.791013 -8 16 C-10.5 14.5 -10.5 14.5 -12 12 C-12.791013 7.97901723 -12.62153384 5.03588973 -10.5 1.5 C-6.96411027 -0.62153384 -4.02098277 -0.791013 0 0 Z "
        transform="translate(1064,658)" style="fill: #ff6600;"/>
    <path
        d="M0 0 C2.5 1.5 2.5 1.5 4 4 C4.791013 8.02098277 4.62153384 10.96411027 2.5 14.5 C-1.03588973 16.62153384 -3.97901723 16.791013 -8 16 C-10.5 14.5 -10.5 14.5 -12 12 C-12.791013 7.97901723 -12.62153384 5.03588973 -10.5 1.5 C-6.96411027 -0.62153384 -4.02098277 -0.791013 0 0 Z "
        transform="translate(1018,658)" style="fill: #ff6600;"/>
    <path
        d="M0 0 C2.5 1.5 2.5 1.5 4 4 C4.791013 8.02098277 4.62153384 10.96411027 2.5 14.5 C-1.03588973 16.62153384 -3.97901723 16.791013 -8 16 C-10.5 14.5 -10.5 14.5 -12 12 C-12.791013 7.97901723 -12.62153384 5.03588973 -10.5 1.5 C-6.96411027 -0.62153384 -4.02098277 -0.791013 0 0 Z "
        transform="translate(972,658)" style="fill: #ff6600;"/>
    <path
        d="M0 0 C2.5 1.5 2.5 1.5 4 4 C4.791013 8.02098277 4.62153384 10.96411027 2.5 14.5 C-1.03588973 16.62153384 -3.97901723 16.791013 -8 16 C-10.5 14.5 -10.5 14.5 -12 12 C-12.791013 7.97901723 -12.62153384 5.03588973 -10.5 1.5 C-6.96411027 -0.62153384 -4.02098277 -0.791013 0 0 Z "
        transform="translate(1018,612)" style="fill: #ff6600;"/>
    <path
        d="M0 0 C4.68322981 1.44099379 4.68322981 1.44099379 6.0625 3.875 C6 6 6 6 4.0625 8.25 C3.381875 8.8275 2.70125 9.405 2 10 C-2.68322981 8.55900621 -2.68322981 8.55900621 -4.0625 6.125 C-4 4 -4 4 -2.0625 1.75 C-1.381875 1.1725 -0.70125 0.595 0 0 Z "
        transform="translate(1122,944)" style="fill: #ff6600;"/>
    <path
        d="M0 0 C4.68322981 1.44099379 4.68322981 1.44099379 6.0625 3.875 C6 6 6 6 4.0625 8.25 C3.381875 8.8275 2.70125 9.405 2 10 C-2.68322981 8.55900621 -2.68322981 8.55900621 -4.0625 6.125 C-4 4 -4 4 -2.0625 1.75 C-1.381875 1.1725 -0.70125 0.595 0 0 Z "
        transform="translate(1099,944)" style="fill: #ff6600;"/>
    <path
        d="M0 0 C4.68322981 1.44099379 4.68322981 1.44099379 6.0625 3.875 C6 6 6 6 4.0625 8.25 C3.381875 8.8275 2.70125 9.405 2 10 C-2.68322981 8.55900621 -2.68322981 8.55900621 -4.0625 6.125 C-4 4 -4 4 -2.0625 1.75 C-1.381875 1.1725 -0.70125 0.595 0 0 Z "
        transform="translate(1076,944)" style="fill: #ff6600;"/>
    <path
        d="M0 0 C4.68322981 1.44099379 4.68322981 1.44099379 6.0625 3.875 C6 6 6 6 4.0625 8.25 C3.381875 8.8275 2.70125 9.405 2 10 C-2.68322981 8.55900621 -2.68322981 8.55900621 -4.0625 6.125 C-4 4 -4 4 -2.0625 1.75 C-1.381875 1.1725 -0.70125 0.595 0 0 Z "
        transform="translate(1122,921)" style="fill: #ff6600;"/>
    <path
        d="M0 0 C4.68322981 1.44099379 4.68322981 1.44099379 6.0625 3.875 C6 6 6 6 4.0625 8.25 C3.381875 8.8275 2.70125 9.405 2 10 C-2.68322981 8.55900621 -2.68322981 8.55900621 -4.0625 6.125 C-4 4 -4 4 -2.0625 1.75 C-1.381875 1.1725 -0.70125 0.595 0 0 Z "
        transform="translate(1099,921)" style="fill: #ff6600;"/>
    <path
        d="M0 0 C4.68322981 1.44099379 4.68322981 1.44099379 6.0625 3.875 C6 6 6 6 4.0625 8.25 C3.381875 8.8275 2.70125 9.405 2 10 C-2.68322981 8.55900621 -2.68322981 8.55900621 -4.0625 6.125 C-4 4 -4 4 -2.0625 1.75 C-1.381875 1.1725 -0.70125 0.595 0 0 Z "
        transform="translate(1076,921)" style="fill: #ff6600;"/>
    <path
        d="M0 0 C4.68322981 1.44099379 4.68322981 1.44099379 6.0625 3.875 C6 6 6 6 4.0625 8.25 C3.381875 8.8275 2.70125 9.405 2 10 C-2.68322981 8.55900621 -2.68322981 8.55900621 -4.0625 6.125 C-4 4 -4 4 -2.0625 1.75 C-1.381875 1.1725 -0.70125 0.595 0 0 Z "
        transform="translate(1122,898)" style="fill: #ff6600;"/>
    <path
        d="M0 0 C4.68322981 1.44099379 4.68322981 1.44099379 6.0625 3.875 C6 6 6 6 4.0625 8.25 C3.381875 8.8275 2.70125 9.405 2 10 C-2.68322981 8.55900621 -2.68322981 8.55900621 -4.0625 6.125 C-4 4 -4 4 -2.0625 1.75 C-1.381875 1.1725 -0.70125 0.595 0 0 Z "
        transform="translate(1099,898)" style="fill: #ff6600;"/>
    <path
        d="M0 0 C4.68322981 1.44099379 4.68322981 1.44099379 6.0625 3.875 C6 6 6 6 4.0625 8.25 C3.381875 8.8275 2.70125 9.405 2 10 C-2.68322981 8.55900621 -2.68322981 8.55900621 -4.0625 6.125 C-4 4 -4 4 -2.0625 1.75 C-1.381875 1.1725 -0.70125 0.595 0 0 Z "
        transform="translate(1076,898)" style="fill: #ff6600;"/>
    <path
        d="M0 0 C4.68322981 1.44099379 4.68322981 1.44099379 6.0625 3.875 C6 6 6 6 4.0625 8.25 C3.381875 8.8275 2.70125 9.405 2 10 C-2.68322981 8.55900621 -2.68322981 8.55900621 -4.0625 6.125 C-4 4 -4 4 -2.0625 1.75 C-1.381875 1.1725 -0.70125 0.595 0 0 Z "
        transform="translate(1188,410)" style="fill: #ff6600;"/>
    <path
        d="M0 0 C4.68322981 1.44099379 4.68322981 1.44099379 6.0625 3.875 C6 6 6 6 4.0625 8.25 C3.381875 8.8275 2.70125 9.405 2 10 C-2.68322981 8.55900621 -2.68322981 8.55900621 -4.0625 6.125 C-4 4 -4 4 -2.0625 1.75 C-1.381875 1.1725 -0.70125 0.595 0 0 Z "
        transform="translate(1165,410)" style="fill: #ff6600;"/>
    <path
        d="M0 0 C4.68322981 1.44099379 4.68322981 1.44099379 6.0625 3.875 C6 6 6 6 4.0625 8.25 C3.381875 8.8275 2.70125 9.405 2 10 C-2.68322981 8.55900621 -2.68322981 8.55900621 -4.0625 6.125 C-4 4 -4 4 -2.0625 1.75 C-1.381875 1.1725 -0.70125 0.595 0 0 Z "
        transform="translate(1142,410)" style="fill: #ff6600;"/>
    <path
        d="M0 0 C4.68322981 1.44099379 4.68322981 1.44099379 6.0625 3.875 C6 6 6 6 4.0625 8.25 C3.381875 8.8275 2.70125 9.405 2 10 C-2.68322981 8.55900621 -2.68322981 8.55900621 -4.0625 6.125 C-4 4 -4 4 -2.0625 1.75 C-1.381875 1.1725 -0.70125 0.595 0 0 Z "
        transform="translate(1188,387)" style="fill: #ff6600;"/>
    <path
        d="M0 0 C4.68322981 1.44099379 4.68322981 1.44099379 6.0625 3.875 C6 6 6 6 4.0625 8.25 C3.381875 8.8275 2.70125 9.405 2 10 C-2.68322981 8.55900621 -2.68322981 8.55900621 -4.0625 6.125 C-4 4 -4 4 -2.0625 1.75 C-1.381875 1.1725 -0.70125 0.595 0 0 Z "
        transform="translate(1165,387)" style="fill: #ff6600;"/>
    <path
        d="M0 0 C4.68322981 1.44099379 4.68322981 1.44099379 6.0625 3.875 C6 6 6 6 4.0625 8.25 C3.381875 8.8275 2.70125 9.405 2 10 C-2.68322981 8.55900621 -2.68322981 8.55900621 -4.0625 6.125 C-4 4 -4 4 -2.0625 1.75 C-1.381875 1.1725 -0.70125 0.595 0 0 Z "
        transform="translate(1142,387)" style="fill: #ff6600;"/>
    <path
        d="M0 0 C4.68322981 1.44099379 4.68322981 1.44099379 6.0625 3.875 C6 6 6 6 4.0625 8.25 C3.381875 8.8275 2.70125 9.405 2 10 C-2.68322981 8.55900621 -2.68322981 8.55900621 -4.0625 6.125 C-4 4 -4 4 -2.0625 1.75 C-1.381875 1.1725 -0.70125 0.595 0 0 Z "
        transform="translate(1188,364)" style="fill: #ff6600;"/>
    <path
        d="M0 0 C4.68322981 1.44099379 4.68322981 1.44099379 6.0625 3.875 C6 6 6 6 4.0625 8.25 C3.381875 8.8275 2.70125 9.405 2 10 C-2.68322981 8.55900621 -2.68322981 8.55900621 -4.0625 6.125 C-4 4 -4 4 -2.0625 1.75 C-1.381875 1.1725 -0.70125 0.595 0 0 Z "
        transform="translate(1165,364)" style="fill: #ff6600;"/>
    <path
        d="M0 0 C4.68322981 1.44099379 4.68322981 1.44099379 6.0625 3.875 C6 6 6 6 4.0625 8.25 C3.381875 8.8275 2.70125 9.405 2 10 C-2.68322981 8.55900621 -2.68322981 8.55900621 -4.0625 6.125 C-4 4 -4 4 -2.0625 1.75 C-1.381875 1.1725 -0.70125 0.595 0 0 Z "
        transform="translate(1142,364)" style="fill: #ff6600;"/>
    <path
        d="M0 0 C4.68322981 1.44099379 4.68322981 1.44099379 6.0625 3.875 C6 6 6 6 4.0625 8.25 C3.381875 8.8275 2.70125 9.405 2 10 C-2.68322981 8.55900621 -2.68322981 8.55900621 -4.0625 6.125 C-4 4 -4 4 -2.0625 1.75 C-1.381875 1.1725 -0.70125 0.595 0 0 Z "
        transform="translate(126,238)" style="fill: #ff6600;"/>
    <path
        d="M0 0 C4.68322981 1.44099379 4.68322981 1.44099379 6.0625 3.875 C6 6 6 6 4.0625 8.25 C3.381875 8.8275 2.70125 9.405 2 10 C-2.68322981 8.55900621 -2.68322981 8.55900621 -4.0625 6.125 C-4 4 -4 4 -2.0625 1.75 C-1.381875 1.1725 -0.70125 0.595 0 0 Z "
        transform="translate(103,238)" style="fill: #ff6600;"/>
    <path
        d="M0 0 C4.68322981 1.44099379 4.68322981 1.44099379 6.0625 3.875 C6 6 6 6 4.0625 8.25 C3.381875 8.8275 2.70125 9.405 2 10 C-2.68322981 8.55900621 -2.68322981 8.55900621 -4.0625 6.125 C-4 4 -4 4 -2.0625 1.75 C-1.381875 1.1725 -0.70125 0.595 0 0 Z "
        transform="translate(80,238)" style="fill: #ff6600;"/>
    <path
        d="M0 0 C4.68322981 1.44099379 4.68322981 1.44099379 6.0625 3.875 C6 6 6 6 4.0625 8.25 C3.381875 8.8275 2.70125 9.405 2 10 C-2.68322981 8.55900621 -2.68322981 8.55900621 -4.0625 6.125 C-4 4 -4 4 -2.0625 1.75 C-1.381875 1.1725 -0.70125 0.595 0 0 Z "
        transform="translate(126,215)" style="fill: #ff6600;"/>
    <path
        d="M0 0 C4.68322981 1.44099379 4.68322981 1.44099379 6.0625 3.875 C6 6 6 6 4.0625 8.25 C3.381875 8.8275 2.70125 9.405 2 10 C-2.68322981 8.55900621 -2.68322981 8.55900621 -4.0625 6.125 C-4 4 -4 4 -2.0625 1.75 C-1.381875 1.1725 -0.70125 0.595 0 0 Z "
        transform="translate(103,215)" style="fill: #ff6600;"/>
    <path
        d="M0 0 C4.68322981 1.44099379 4.68322981 1.44099379 6.0625 3.875 C6 6 6 6 4.0625 8.25 C3.381875 8.8275 2.70125 9.405 2 10 C-2.68322981 8.55900621 -2.68322981 8.55900621 -4.0625 6.125 C-4 4 -4 4 -2.0625 1.75 C-1.381875 1.1725 -0.70125 0.595 0 0 Z "
        transform="translate(80,215)" style="fill: #ff6600;"/>
    <path
        d="M0 0 C4.68322981 1.44099379 4.68322981 1.44099379 6.0625 3.875 C6 6 6 6 4.0625 8.25 C3.381875 8.8275 2.70125 9.405 2 10 C-2.68322981 8.55900621 -2.68322981 8.55900621 -4.0625 6.125 C-4 4 -4 4 -2.0625 1.75 C-1.381875 1.1725 -0.70125 0.595 0 0 Z "
        transform="translate(126,192)" style="fill: #ff6600;"/>
    <path
        d="M0 0 C4.68322981 1.44099379 4.68322981 1.44099379 6.0625 3.875 C6 6 6 6 4.0625 8.25 C3.381875 8.8275 2.70125 9.405 2 10 C-2.68322981 8.55900621 -2.68322981 8.55900621 -4.0625 6.125 C-4 4 -4 4 -2.0625 1.75 C-1.381875 1.1725 -0.70125 0.595 0 0 Z "
        transform="translate(103,192)" style="fill: #ff6600;"/>
    <path
        d="M0 0 C4.68322981 1.44099379 4.68322981 1.44099379 6.0625 3.875 C6 6 6 6 4.0625 8.25 C3.381875 8.8275 2.70125 9.405 2 10 C-2.68322981 8.55900621 -2.68322981 8.55900621 -4.0625 6.125 C-4 4 -4 4 -2.0625 1.75 C-1.381875 1.1725 -0.70125 0.595 0 0 Z "
        transform="translate(80,192)" style="fill: #ff6600;"/>
    <path
        d="M0 0 C2.4375 0.75 2.4375 0.75 5 2 C5.9375 3.9375 5.9375 3.9375 6 6 C5.01 7.485 5.01 7.485 4 9 C0.875 9.1875 0.875 9.1875 -2 9 C-2.66 7.35 -3.32 5.7 -4 4 C-2.68 2.68 -1.36 1.36 0 0 Z "
        transform="translate(1099,967)" style="fill: #ff6600;"/>
    <path
        d="M0 0 C2.625 0.9375 2.625 0.9375 5 2 C5 3.98 5 5.96 5 8 C3.35 8.66 1.7 9.32 0 10 C-1.32 8.68 -2.64 7.36 -4 6 C-2.25 1.125 -2.25 1.125 0 0 Z "
        transform="translate(1145,921)" style="fill: #ff6600;"/>
    <path
        d="M0 0 C2.625 0.625 2.625 0.625 5 2 C6.0625 3.875 6.0625 3.875 6 6 C4.0625 8.25 4.0625 8.25 2 10 C-0.475 9.01 -0.475 9.01 -3 8 C-3.1875 5.125 -3.1875 5.125 -3 2 C-2.01 1.34 -1.02 0.68 0 0 Z "
        transform="translate(1053,921)" style="fill: #ff6600;"/>
    <path
        d="M0 0 C3.125 -0.1875 3.125 -0.1875 6 0 C6.66 1.65 7.32 3.3 8 5 C6.68 6.32 5.36 7.64 4 9 C1.5625 8.25 1.5625 8.25 -1 7 C-1.9375 5.0625 -1.9375 5.0625 -2 3 C-1.34 2.01 -0.68 1.02 0 0 Z "
        transform="translate(1097,876)" style="fill: #ff6600;"/>
    <path
        d="M0 0 C2.4375 0.75 2.4375 0.75 5 2 C5.9375 3.9375 5.9375 3.9375 6 6 C5.01 7.485 5.01 7.485 4 9 C0.875 9.1875 0.875 9.1875 -2 9 C-2.66 7.35 -3.32 5.7 -4 4 C-2.68 2.68 -1.36 1.36 0 0 Z "
        transform="translate(1165,433)" style="fill: #ff6600;"/>
    <path
        d="M0 0 C2.625 0.9375 2.625 0.9375 5 2 C5 3.98 5 5.96 5 8 C3.35 8.66 1.7 9.32 0 10 C-1.32 8.68 -2.64 7.36 -4 6 C-2.25 1.125 -2.25 1.125 0 0 Z "
        transform="translate(1211,387)" style="fill: #ff6600;"/>
    <path
        d="M0 0 C2.625 0.625 2.625 0.625 5 2 C6.0625 3.875 6.0625 3.875 6 6 C4.0625 8.25 4.0625 8.25 2 10 C-0.475 9.01 -0.475 9.01 -3 8 C-3.1875 5.125 -3.1875 5.125 -3 2 C-2.01 1.34 -1.02 0.68 0 0 Z "
        transform="translate(1119,387)" style="fill: #ff6600;"/>
    <path
        d="M0 0 C3.125 -0.1875 3.125 -0.1875 6 0 C6.66 1.65 7.32 3.3 8 5 C6.68 6.32 5.36 7.64 4 9 C1.5625 8.25 1.5625 8.25 -1 7 C-1.9375 5.0625 -1.9375 5.0625 -2 3 C-1.34 2.01 -0.68 1.02 0 0 Z "
        transform="translate(1163,342)" style="fill: #ff6600;"/>
    <path
        d="M0 0 C2.4375 0.75 2.4375 0.75 5 2 C5.9375 3.9375 5.9375 3.9375 6 6 C5.01 7.485 5.01 7.485 4 9 C0.875 9.1875 0.875 9.1875 -2 9 C-2.66 7.35 -3.32 5.7 -4 4 C-2.68 2.68 -1.36 1.36 0 0 Z "
        transform="translate(103,261)" style="fill: #ff6600;"/>
    <path
        d="M0 0 C2.625 0.9375 2.625 0.9375 5 2 C5 3.98 5 5.96 5 8 C3.35 8.66 1.7 9.32 0 10 C-1.32 8.68 -2.64 7.36 -4 6 C-2.25 1.125 -2.25 1.125 0 0 Z "
        transform="translate(149,215)" style="fill: #ff6600;"/>
    <path
        d="M0 0 C2.625 0.625 2.625 0.625 5 2 C6.0625 3.875 6.0625 3.875 6 6 C4.0625 8.25 4.0625 8.25 2 10 C-0.475 9.01 -0.475 9.01 -3 8 C-3.1875 5.125 -3.1875 5.125 -3 2 C-2.01 1.34 -1.02 0.68 0 0 Z "
        transform="translate(57,215)" style="fill: #ff6600;"/>
    <path
        d="M0 0 C3.125 -0.1875 3.125 -0.1875 6 0 C6.66 1.65 7.32 3.3 8 5 C6.68 6.32 5.36 7.64 4 9 C1.5625 8.25 1.5625 8.25 -1 7 C-1.9375 5.0625 -1.9375 5.0625 -2 3 C-1.34 2.01 -0.68 1.02 0 0 Z "
        transform="translate(101,170)" style="fill: #ff6600;"/>
    <path d="M0 0 C1.65 0.33 3.3 0.66 5 1 C4.6875 2.9375 4.6875 2.9375 4 5 C1 6 1 6 -1 5 C-0.67 3.35 -0.34 1.7 0 0 Z "
          transform="translate(316,423)" style="fill: #ff6600;"/>
    <path
        d="M0 0 C1.65 0.33 3.3 0.66 5 1 C5 2.32 5 3.64 5 5 C3.125 5.625 3.125 5.625 1 6 C0.34 5.34 -0.32 4.68 -1 4 C-0.625 1.875 -0.625 1.875 0 0 Z "
        transform="translate(288,423)" style="fill: #ff6600;"/>
    <path
        d="M0 0 C2.125 0.9375 2.125 0.9375 4 2 C3.67 3.32 3.34 4.64 3 6 C1.35 5.67 -0.3 5.34 -2 5 C-2 3.68 -2 2.36 -2 1 C-1.34 0.67 -0.68 0.34 0 0 Z "
        transform="translate(317,395)" style="fill: #ff6600;"/>
    <path
        d="M0 0 C2.0625 0.4375 2.0625 0.4375 4 1 C3.67 2.65 3.34 4.3 3 6 C1.35 5.67 -0.3 5.34 -2 5 C-1.125 1.125 -1.125 1.125 0 0 Z "
        transform="translate(289,395)" style="fill: #ff6600;"/>
    <path
        d="M0 0 C1.67542976 0.28604898 3.34385343 0.61781233 5 1 C4.67 2.32 4.34 3.64 4 5 C2.68 5 1.36 5 0 5 C-0.5625 3.0625 -0.5625 3.0625 -1 1 C-0.67 0.67 -0.34 0.34 0 0 Z "
        transform="translate(302,423)" style="fill: #ff6600;"/>
    <path
        d="M0 0 C2.0625 0.4375 2.0625 0.4375 4 1 C4 2.32 4 3.64 4 5 C2.68 5.33 1.36 5.66 0 6 C-0.38218767 4.34385343 -0.71395102 2.67542976 -1 1 C-0.67 0.67 -0.34 0.34 0 0 Z "
        transform="translate(316,409)" style="fill: #ff6600;"/>
    <path
        d="M0 0 C0 1.32 0 2.64 0 4 C-3.75 5.125 -3.75 5.125 -6 4 C-6 2.68 -6 1.36 -6 0 C-3.50907189 -1.24546405 -2.58919267 -0.7767578 0 0 Z "
        transform="translate(307,410)" style="fill: #ff6600;"/>
    <path d="M0 0 C2.0625 0.4375 2.0625 0.4375 4 1 C3.67 2.65 3.34 4.3 3 6 C1.68 5.67 0.36 5.34 -1 5 C-1 1 -1 1 0 0 Z "
          transform="translate(289,409)" style="fill: #ff6600;"/>
    <path
        d="M0 0 C1.32 0.66 2.64 1.32 4 2 C3.67 3.32 3.34 4.64 3 6 C1.35 5.67 -0.3 5.34 -2 5 C-1.125 1.125 -1.125 1.125 0 0 Z "
        transform="translate(303,395)" style="fill: #ff6600;"/>
    <path
        d="M0 0 C1.65 0.33 3.3 0.66 5 1 C4.67 2.32 4.34 3.64 4 5 C2.35 4.67 0.7 4.34 -1 4 C-0.67 2.68 -0.34 1.36 0 0 Z "
        transform="translate(302,437)" style="fill: #ff6600;"/>
    <path
        d="M0 0 C1.98 0.495 1.98 0.495 4 1 C3.67 2.65 3.34 4.3 3 6 C1.68 5.67 0.36 5.34 -1 5 C-0.67 3.35 -0.34 1.7 0 0 Z "
        transform="translate(275,409)" style="fill: #ff6600;"/>
    <path
        d="M0 0 C1.98 0.495 1.98 0.495 4 1 C3.67 2.65 3.34 4.3 3 6 C1.68 5.67 0.36 5.34 -1 5 C-0.67 3.35 -0.34 1.7 0 0 Z "
        transform="translate(330,409)" style="fill: #ff6600;"/>
    <path
        d="M0 0 C1.65 0.33 3.3 0.66 5 1 C4.67 2.32 4.34 3.64 4 5 C2.35 4.67 0.7 4.34 -1 4 C-0.67 2.68 -0.34 1.36 0 0 Z "
        transform="translate(302,382)" style="fill: #ff6600;"/>
</svg>
