<?xml version="1.0" encoding="UTF-8"?>
<!DOCTYPE svg PUBLIC "-//W3C//DTD SVG 1.1//EN" "http://www.w3.org/Graphics/SVG/1.1/DTD/svg11.dtd">
<!-- Creator: CorelDRAW X7 -->
<svg xmlns="http://www.w3.org/2000/svg" xml:space="preserve" width="10in" height="10in" version="1.1" style="shape-rendering:geometricPrecision; text-rendering:geometricPrecision; image-rendering:optimizeQuality; fill-rule:evenodd; clip-rule:evenodd"
viewBox="0 0 10000 10000"
 xmlns:xlink="http://www.w3.org/1999/xlink">
 <defs>
  <style type="text/css">
   <![CDATA[
    .fil0 {fill:#FF6600}
    .fil1 {fill:black;fill-rule:nonzero}
    .fil2 {fill:black;fill-rule:nonzero}
   ]]>
  </style>
 </defs>
 <g id="Layer_x0020_1">
  <metadata id="CorelCorpID_0Corel-Layer"/>
  <g id="_790185088">
   <rect class="fil0" x="2398" y="4330" width="1341" height="1341" rx="170" ry="170"/>
   <g>
    <path class="fil1" d="M2957 4912l-114 -243 -114 243 228 0zm-354 80l33 -71 176 -376 61 0 210 447c-160,0 -320,0 -480,0z"/>
    <polygon class="fil1" points="2742,5040 2843,5179 2944,5040 3043,5040 2892,5248 3043,5455 2944,5455 2843,5316 2742,5455 2643,5455 2793,5248 2643,5040 "/>
    <path class="fil1" d="M3533 4768c0,62 -22,115 -65,159 -44,43 -97,65 -158,65 -62,0 -115,-22 -159,-65 -43,-44 -65,-97 -65,-159 0,-61 22,-114 65,-158 44,-43 97,-65 159,-65 61,0 114,22 158,65 43,44 65,97 65,158zm-223 -143c-40,0 -74,14 -102,42 -28,28 -42,62 -42,101 0,40 14,74 42,102 28,28 62,42 102,42 39,0 73,-14 101,-42 28,-28 42,-62 42,-102 0,-39 -14,-73 -42,-101 -28,-28 -62,-42 -101,-42z"/>
    <path class="fil1" d="M3177 5157c-12,21 -18,45 -18,71 0,40 14,74 43,103 29,29 63,43 104,43 26,0 49,-6 70,-18l-199 -199zm-2 -117l60 59 199 199c12,-21 18,-44 18,-70 0,-45 -19,-84 -56,-116l50 -63c58,47 87,107 87,179 0,62 -22,116 -67,161 -44,44 -98,66 -160,66 -63,0 -117,-22 -161,-66 -45,-45 -67,-99 -67,-161 0,-63 22,-117 66,-162 10,-9 21,-18 31,-26z"/>
   </g>
   <g>
    <path class="fil2" d="M6378 4973c0,153 -54,284 -162,392 -108,108 -238,162 -391,162 -153,0 -283,-54 -391,-162 -108,-108 -162,-239 -162,-392 0,-153 54,-283 162,-391 108,-108 238,-162 391,-162 153,0 283,54 391,162 108,108 162,238 162,391zm-553 -355c-98,0 -182,34 -251,104 -70,69 -105,153 -105,251 0,98 35,182 105,252 69,69 153,104 251,104 98,0 182,-35 251,-104 70,-70 105,-154 105,-252 0,-98 -35,-182 -105,-251 -69,-70 -153,-104 -251,-104z"/>
    <path class="fil2" d="M4878 5329l-282 -602 -281 602 563 0zm-876 198l517 -1107 152 0 520 1107c-397,0 -793,0 -1189,0z"/>
    <polygon class="fil2" points="7289,4618 7008,5220 6727,4618 6635,4420 6413,4420 6930,5527 7082,5527 7602,4420 7378,4420 "/>
   </g>
  </g>
 </g>
</svg>
